<?xml version="1.0" encoding="UTF-8" standalone="no"?>
<svg
   viewBox="0 0 384 512"
   version="1.1"
   id="svg4"
   sodipodi:docname="file-csv.svg"
   inkscape:version="1.1.2 (0a00cf5339, 2022-02-04)"
   xmlns:inkscape="http://www.inkscape.org/namespaces/inkscape"
   xmlns:sodipodi="http://sodipodi.sourceforge.net/DTD/sodipodi-0.dtd"
   xmlns="http://www.w3.org/2000/svg"
   xmlns:svg="http://www.w3.org/2000/svg">
  <defs
     id="defs8" />
  <sodipodi:namedview
     id="namedview6"
     pagecolor="#ffffff"
     bordercolor="#666666"
     borderopacity="1.0"
     inkscape:pageshadow="2"
     inkscape:pageopacity="0.0"
     inkscape:pagecheckerboard="0"
     showgrid="false"
     inkscape:zoom="1.5273438"
     inkscape:cx="162.70077"
     inkscape:cy="255.67263"
     inkscape:window-width="1850"
     inkscape:window-height="1016"
     inkscape:window-x="0"
     inkscape:window-y="0"
     inkscape:window-maximized="1"
     inkscape:current-layer="svg4" />
  <path
     id="path2"
     d="M 48,-0.09960937 C 21.5,3.9051e-4 0,21.5 0,48 v 416 c 0,26.5 21.5,48 48,48 h 288 c 26.5,0 48,-21.5 48,-48 V 131.90039 c 0,-12.7 -5.09961,-25 -14.09961,-33.999999 L 286,14 C 277,5 264.79961,-0.09960937 252.09961,-0.09960937 Z M 48,48 h 160 v 104 c 0,13.3 10.7,24 24,24 H 336 V 464 H 48 Z M 256,51.900391 332.09961,128 H 256 Z" />
  <text
     xml:space="preserve"
     style="font-style:normal;font-weight:normal;font-size:106.667px;line-height:1.25;font-family:sans-serif;fill:#000000;fill-opacity:1;stroke:none"
     x="73.485924"
     y="334.07162"
     id="text4957"><tspan
       sodipodi:role="line"
       id="tspan4955"
       x="73.485924"
       y="334.07162"
       style="font-style:normal;font-variant:normal;font-weight:bold;font-stretch:normal;font-size:106.667px;font-family:sans-serif;-inkscape-font-specification:'sans-serif Bold'">CSV</tspan></text>
</svg>
