<svg id="Ebene_1" data-name="Ebene 1" xmlns="http://www.w3.org/2000/svg" viewBox="0 0 60.0174 60"><defs><style>.cls-1{fill:#fff;}</style></defs><title>earkweb_logo_icon</title><circle class="cls-1" cx="12.4728" cy="21.2206" r="3.7187"/><circle class="cls-1" cx="21.238" cy="12.4555" r="3.7187"/><circle class="cls-1" cx="12.4728" cy="38.7509" r="3.7187"/><path class="cls-1" d="M18.6084,27.3562A3.5412,3.5412,0,0,0,17.5566,29.74H7.4592v.28a3.63,3.63,0,0,0-1.0869-2.6295,3.7564,3.7564,0,0,0-5.2942-.0351,3.7458,3.7458,0,0,0,0,5.2591,3.7458,3.7458,0,0,0,5.2591,0,3.63,3.63,0,0,0,1.0869-2.6295v.2805H17.5216A3.54,3.54,0,0,0,18.5734,32.65a3.7187,3.7187,0,1,0,5.2591-5.2591A3.7034,3.7034,0,0,0,18.6084,27.3562ZM5.9866,32.2647a3.2229,3.2229,0,1,1,0-4.5579A3.2165,3.2165,0,0,1,5.9866,32.2647Zm17.53,0a3.2229,3.2229,0,1,1,0-4.5579A3.2165,3.2165,0,0,1,23.5169,32.2647Z"/><path class="cls-1" d="M36.1388,9.8259l.1753-.1753L32.808,6.1445l-.1753.1753-.1753.1753,3.5061,3.5061.1753-.1753a3.7187,3.7187,0,1,0,5.2591,0A3.7458,3.7458,0,0,0,36.1388,9.8259Zm4.9084,4.9085a3.2229,3.2229,0,1,1,0-4.5579A3.2164,3.2164,0,0,1,41.0472,14.7344Z"/><circle class="cls-1" cx="30.0031" cy="38.7509" r="3.7187"/><path class="cls-1" d="M36.1388,27.3562a3.7187,3.7187,0,1,0,5.2591,0A3.7458,3.7458,0,0,0,36.1388,27.3562Zm4.9084,4.9085a3.2229,3.2229,0,1,1,0-4.5579A3.2164,3.2164,0,0,1,41.0472,32.2647Z"/><circle class="cls-1" cx="47.5335" cy="21.2206" r="3.7187"/><circle class="cls-1" cx="30.0031" cy="56.2813" r="3.7187"/><path class="cls-1" d="M36.1388,44.8865a3.665,3.665,0,0,0-1.0869,2.4192v-.07l-10.1325.0351h0a3.7332,3.7332,0,0,0-3.5061-3.5061h.07V33.6671h-.4908L20.9575,43.8h.07a3.6653,3.6653,0,0,0-2.4192,1.0868,3.7187,3.7187,0,1,0,5.2591,5.2591,3.6645,3.6645,0,0,0,1.0869-2.4191v.07H35.0519v-.07a3.6645,3.6645,0,0,0,1.0869,2.4191,3.7187,3.7187,0,1,0,0-5.2591ZM23.5169,49.795a3.2229,3.2229,0,1,1,0-4.5578A3.2165,3.2165,0,0,1,23.5169,49.795Zm17.53,0a3.2229,3.2229,0,1,1,0-4.5578A3.2164,3.2164,0,0,1,41.0472,49.795Z"/><circle class="cls-1" cx="47.5335" cy="38.7509" r="3.7187"/><circle class="cls-1" cx="56.2986" cy="29.9858" r="3.7187"/><path class="cls-1" d="M30.2486,17.5392V7.4418h-.28a3.63,3.63,0,0,0,2.63-1.0869,3.7458,3.7458,0,0,0,0-5.2591,3.7034,3.7034,0,0,0-5.224-.0351,3.7458,3.7458,0,0,0,0,5.2591,3.63,3.63,0,0,0,2.63,1.0869h-.28l.035,10.1325h.07a3.6655,3.6655,0,0,0-2.4191,1.0869,3.7187,3.7187,0,1,0,5.2591,0,3.4881,3.4881,0,0,0-2.4192-1.0869ZM27.7242,1.4114a3.2229,3.2229,0,1,1,0,4.5578A3.2165,3.2165,0,0,1,27.7242,1.4114ZM32.2821,23.5a3.2229,3.2229,0,1,1,0-4.5579A3.2167,3.2167,0,0,1,32.2821,23.5Z"/><polygon class="cls-1" points="32.457 18.416 32.633 18.591 32.808 18.766 36.314 15.26 36.139 15.085 35.963 14.91 32.457 18.416"/><polygon class="cls-1" points="23.692 27.181 23.868 27.356 24.043 27.532 27.549 24.025 27.374 23.85 27.198 23.675 23.692 27.181"/><rect class="cls-1" x="34.1378" y="23.124" width="0.4958" height="4.9583" transform="translate(-8.0328 31.8134) rotate(-45)"/></svg>